<mxfile host="app.diagrams.net" agent="Mozilla/5.0 (Windows NT 10.0; Win64; x64) AppleWebKit/537.36 (KHTML, like Gecko) Chrome/131.0.0.0 Safari/537.36" version="26.0.4">
  <diagram name="Page-1" id="0783ab3e-0a74-02c8-0abd-f7b4e66b4bec">
    <mxGraphModel dx="5736" dy="2984" grid="1" gridSize="10" guides="1" tooltips="1" connect="1" arrows="1" fold="1" page="1" pageScale="1" pageWidth="850" pageHeight="1100" background="none" math="0" shadow="0">
      <root>
        <mxCell id="0" />
        <mxCell id="1" parent="0" />
        <mxCell id="1c1d494c118603dd-1" value="" style="swimlane;html=1;childLayout=stackLayout;startSize=20;rounded=0;shadow=0;comic=0;labelBackgroundColor=none;strokeWidth=1;fontFamily=Verdana;fontSize=12;align=center;" parent="1" vertex="1">
          <mxGeometry x="12" y="10" width="1230" height="2820" as="geometry" />
        </mxCell>
        <mxCell id="1c1d494c118603dd-29" style="edgeStyle=orthogonalEdgeStyle;rounded=0;html=1;exitX=0.75;exitY=1;labelBackgroundColor=none;startArrow=none;startFill=0;startSize=5;endArrow=classicThin;endFill=1;endSize=5;jettySize=auto;orthogonalLoop=1;strokeWidth=1;fontFamily=Verdana;fontSize=12" parent="1c1d494c118603dd-1" source="60571a20871a0731-3" target="1c1d494c118603dd-5" edge="1">
          <mxGeometry relative="1" as="geometry">
            <Array as="points">
              <mxPoint x="750" y="210" />
              <mxPoint x="1032" y="210" />
            </Array>
          </mxGeometry>
        </mxCell>
        <mxCell id="1c1d494c118603dd-33" style="rounded=0;html=1;labelBackgroundColor=none;startArrow=none;startFill=0;startSize=5;endArrow=classicThin;endFill=1;endSize=5;jettySize=auto;orthogonalLoop=1;strokeWidth=1;fontFamily=Verdana;fontSize=12;entryX=0.75;entryY=0;entryDx=0;entryDy=0;" parent="1c1d494c118603dd-1" source="1c1d494c118603dd-5" target="1Mtl0f4eCWm2PjOWI_Pj-1" edge="1">
          <mxGeometry relative="1" as="geometry">
            <mxPoint x="427" y="288.51724137931024" as="targetPoint" />
          </mxGeometry>
        </mxCell>
        <mxCell id="1Mtl0f4eCWm2PjOWI_Pj-5" value="" style="edgeStyle=orthogonalEdgeStyle;rounded=0;orthogonalLoop=1;jettySize=auto;html=1;" edge="1" parent="1c1d494c118603dd-1" source="1Mtl0f4eCWm2PjOWI_Pj-2" target="1Mtl0f4eCWm2PjOWI_Pj-4">
          <mxGeometry relative="1" as="geometry" />
        </mxCell>
        <mxCell id="1Mtl0f4eCWm2PjOWI_Pj-23" value="" style="edgeStyle=orthogonalEdgeStyle;rounded=0;orthogonalLoop=1;jettySize=auto;html=1;" edge="1" parent="1c1d494c118603dd-1" source="1Mtl0f4eCWm2PjOWI_Pj-20" target="1Mtl0f4eCWm2PjOWI_Pj-22">
          <mxGeometry relative="1" as="geometry" />
        </mxCell>
        <mxCell id="1Mtl0f4eCWm2PjOWI_Pj-27" value="" style="edgeStyle=orthogonalEdgeStyle;rounded=0;orthogonalLoop=1;jettySize=auto;html=1;" edge="1" parent="1c1d494c118603dd-1" source="1Mtl0f4eCWm2PjOWI_Pj-24" target="1Mtl0f4eCWm2PjOWI_Pj-26">
          <mxGeometry relative="1" as="geometry" />
        </mxCell>
        <mxCell id="1Mtl0f4eCWm2PjOWI_Pj-34" style="edgeStyle=orthogonalEdgeStyle;rounded=0;orthogonalLoop=1;jettySize=auto;html=1;entryX=0.5;entryY=0;entryDx=0;entryDy=0;" edge="1" parent="1c1d494c118603dd-1" source="1Mtl0f4eCWm2PjOWI_Pj-4" target="1Mtl0f4eCWm2PjOWI_Pj-8">
          <mxGeometry relative="1" as="geometry" />
        </mxCell>
        <mxCell id="1c1d494c118603dd-2" value="Пользователь (арендатор)&amp;nbsp;" style="swimlane;html=1;startSize=20;" parent="1c1d494c118603dd-1" vertex="1">
          <mxGeometry y="20" width="500" height="2800" as="geometry" />
        </mxCell>
        <mxCell id="1Mtl0f4eCWm2PjOWI_Pj-31" value="" style="edgeStyle=orthogonalEdgeStyle;rounded=0;orthogonalLoop=1;jettySize=auto;html=1;" edge="1" parent="1c1d494c118603dd-2" source="1c1d494c118603dd-6" target="1Mtl0f4eCWm2PjOWI_Pj-30">
          <mxGeometry relative="1" as="geometry" />
        </mxCell>
        <mxCell id="1c1d494c118603dd-6" value="Перейти к настройкам" style="rounded=1;whiteSpace=wrap;html=1;shadow=0;comic=0;labelBackgroundColor=none;strokeWidth=1;fontFamily=Verdana;fontSize=12;align=center;arcSize=50;" parent="1c1d494c118603dd-2" vertex="1">
          <mxGeometry x="90" y="220" width="100" height="30" as="geometry" />
        </mxCell>
        <mxCell id="60571a20871a0731-4" value="" style="ellipse;whiteSpace=wrap;html=1;rounded=0;shadow=0;comic=0;labelBackgroundColor=none;strokeWidth=1;fillColor=#000000;fontFamily=Verdana;fontSize=12;align=center;" parent="1c1d494c118603dd-2" vertex="1">
          <mxGeometry x="80" y="40" width="40" height="40" as="geometry" />
        </mxCell>
        <mxCell id="60571a20871a0731-8" value="Авторизоваться" style="rounded=1;whiteSpace=wrap;html=1;shadow=0;comic=0;labelBackgroundColor=none;strokeWidth=1;fontFamily=Verdana;fontSize=12;align=center;arcSize=50;" parent="1c1d494c118603dd-2" vertex="1">
          <mxGeometry x="50" y="120" width="100" height="30" as="geometry" />
        </mxCell>
        <mxCell id="1c1d494c118603dd-27" style="edgeStyle=orthogonalEdgeStyle;rounded=0;html=1;labelBackgroundColor=none;startArrow=none;startFill=0;startSize=5;endArrow=classicThin;endFill=1;endSize=5;jettySize=auto;orthogonalLoop=1;strokeWidth=1;fontFamily=Verdana;fontSize=12" parent="1c1d494c118603dd-2" source="60571a20871a0731-4" target="60571a20871a0731-8" edge="1">
          <mxGeometry relative="1" as="geometry" />
        </mxCell>
        <mxCell id="1Mtl0f4eCWm2PjOWI_Pj-40" value="" style="edgeStyle=orthogonalEdgeStyle;rounded=0;orthogonalLoop=1;jettySize=auto;html=1;" edge="1" parent="1c1d494c118603dd-2" source="1Mtl0f4eCWm2PjOWI_Pj-30" target="1Mtl0f4eCWm2PjOWI_Pj-39">
          <mxGeometry relative="1" as="geometry" />
        </mxCell>
        <mxCell id="1Mtl0f4eCWm2PjOWI_Pj-30" value="Выбрать тип уведомлений" style="rounded=1;whiteSpace=wrap;html=1;shadow=0;comic=0;labelBackgroundColor=none;strokeWidth=1;fontFamily=Verdana;fontSize=12;align=center;arcSize=50;" vertex="1" parent="1c1d494c118603dd-2">
          <mxGeometry x="90" y="290" width="100" height="30" as="geometry" />
        </mxCell>
        <mxCell id="1Mtl0f4eCWm2PjOWI_Pj-42" value="" style="edgeStyle=orthogonalEdgeStyle;rounded=0;orthogonalLoop=1;jettySize=auto;html=1;" edge="1" parent="1c1d494c118603dd-2" source="1Mtl0f4eCWm2PjOWI_Pj-39" target="1Mtl0f4eCWm2PjOWI_Pj-41">
          <mxGeometry relative="1" as="geometry" />
        </mxCell>
        <mxCell id="1Mtl0f4eCWm2PjOWI_Pj-39" value="Выбрать частоту" style="rounded=1;whiteSpace=wrap;html=1;shadow=0;comic=0;labelBackgroundColor=none;strokeWidth=1;fontFamily=Verdana;fontSize=12;align=center;arcSize=50;" vertex="1" parent="1c1d494c118603dd-2">
          <mxGeometry x="90" y="370" width="100" height="30" as="geometry" />
        </mxCell>
        <mxCell id="1Mtl0f4eCWm2PjOWI_Pj-260" style="edgeStyle=orthogonalEdgeStyle;rounded=0;orthogonalLoop=1;jettySize=auto;html=1;entryX=0.5;entryY=0;entryDx=0;entryDy=0;" edge="1" parent="1c1d494c118603dd-2" source="1Mtl0f4eCWm2PjOWI_Pj-41" target="1Mtl0f4eCWm2PjOWI_Pj-258">
          <mxGeometry relative="1" as="geometry" />
        </mxCell>
        <mxCell id="1Mtl0f4eCWm2PjOWI_Pj-41" value="Настройки уведомлений об изменении избранных" style="rounded=1;whiteSpace=wrap;html=1;shadow=0;comic=0;labelBackgroundColor=none;strokeWidth=1;fontFamily=Verdana;fontSize=12;align=center;arcSize=50;" vertex="1" parent="1c1d494c118603dd-2">
          <mxGeometry x="55" y="450" width="170" height="30" as="geometry" />
        </mxCell>
        <mxCell id="1Mtl0f4eCWm2PjOWI_Pj-47" value="" style="edgeStyle=orthogonalEdgeStyle;rounded=0;orthogonalLoop=1;jettySize=auto;html=1;" edge="1" parent="1c1d494c118603dd-2" source="1Mtl0f4eCWm2PjOWI_Pj-43" target="1Mtl0f4eCWm2PjOWI_Pj-46">
          <mxGeometry relative="1" as="geometry" />
        </mxCell>
        <mxCell id="1Mtl0f4eCWm2PjOWI_Pj-43" value="Настроить профиль интересов" style="rounded=1;whiteSpace=wrap;html=1;shadow=0;comic=0;labelBackgroundColor=none;strokeWidth=1;fontFamily=Verdana;fontSize=12;align=center;arcSize=50;" vertex="1" parent="1c1d494c118603dd-2">
          <mxGeometry x="55" y="690" width="170" height="30" as="geometry" />
        </mxCell>
        <mxCell id="1Mtl0f4eCWm2PjOWI_Pj-46" value="Сохранить настройки" style="rounded=1;whiteSpace=wrap;html=1;shadow=0;comic=0;labelBackgroundColor=none;strokeWidth=1;fontFamily=Verdana;fontSize=12;align=center;arcSize=50;" vertex="1" parent="1c1d494c118603dd-2">
          <mxGeometry x="55" y="750" width="170" height="30" as="geometry" />
        </mxCell>
        <mxCell id="1Mtl0f4eCWm2PjOWI_Pj-56" value="" style="edgeStyle=orthogonalEdgeStyle;rounded=0;orthogonalLoop=1;jettySize=auto;html=1;" edge="1" parent="1c1d494c118603dd-2" source="1Mtl0f4eCWm2PjOWI_Pj-50" target="1Mtl0f4eCWm2PjOWI_Pj-55">
          <mxGeometry relative="1" as="geometry" />
        </mxCell>
        <mxCell id="1Mtl0f4eCWm2PjOWI_Pj-50" value="Поиск недвижимости" style="rounded=1;whiteSpace=wrap;html=1;shadow=0;comic=0;labelBackgroundColor=none;strokeWidth=1;fontFamily=Verdana;fontSize=12;align=center;arcSize=50;" vertex="1" parent="1c1d494c118603dd-2">
          <mxGeometry x="55" y="810" width="170" height="30" as="geometry" />
        </mxCell>
        <mxCell id="1Mtl0f4eCWm2PjOWI_Pj-55" value="Настроить фильтрацию" style="rounded=1;whiteSpace=wrap;html=1;shadow=0;comic=0;labelBackgroundColor=none;strokeWidth=1;fontFamily=Verdana;fontSize=12;align=center;arcSize=50;" vertex="1" parent="1c1d494c118603dd-2">
          <mxGeometry x="55" y="860" width="170" height="30" as="geometry" />
        </mxCell>
        <mxCell id="1Mtl0f4eCWm2PjOWI_Pj-73" style="edgeStyle=orthogonalEdgeStyle;rounded=0;orthogonalLoop=1;jettySize=auto;html=1;" edge="1" parent="1c1d494c118603dd-2" source="1Mtl0f4eCWm2PjOWI_Pj-63" target="1Mtl0f4eCWm2PjOWI_Pj-72">
          <mxGeometry relative="1" as="geometry" />
        </mxCell>
        <mxCell id="1Mtl0f4eCWm2PjOWI_Pj-77" value="Да" style="edgeLabel;html=1;align=center;verticalAlign=middle;resizable=0;points=[];" vertex="1" connectable="0" parent="1Mtl0f4eCWm2PjOWI_Pj-73">
          <mxGeometry x="-0.5771" relative="1" as="geometry">
            <mxPoint x="-18" y="-11" as="offset" />
          </mxGeometry>
        </mxCell>
        <mxCell id="1Mtl0f4eCWm2PjOWI_Pj-63" value="" style="rhombus;whiteSpace=wrap;html=1;" vertex="1" parent="1c1d494c118603dd-2">
          <mxGeometry x="110" y="1010" width="50" height="50" as="geometry" />
        </mxCell>
        <mxCell id="1Mtl0f4eCWm2PjOWI_Pj-65" value="Поиск на карте" style="text;html=1;align=center;verticalAlign=middle;whiteSpace=wrap;rounded=0;" vertex="1" parent="1c1d494c118603dd-2">
          <mxGeometry x="105" y="1060" width="60" height="30" as="geometry" />
        </mxCell>
        <mxCell id="1Mtl0f4eCWm2PjOWI_Pj-67" style="edgeStyle=orthogonalEdgeStyle;rounded=0;orthogonalLoop=1;jettySize=auto;html=1;entryX=0;entryY=0.5;entryDx=0;entryDy=0;" edge="1" parent="1c1d494c118603dd-2" source="1Mtl0f4eCWm2PjOWI_Pj-63" target="1Mtl0f4eCWm2PjOWI_Pj-75">
          <mxGeometry relative="1" as="geometry">
            <mxPoint x="71.03999999999996" y="1096.01" as="targetPoint" />
            <Array as="points">
              <mxPoint x="71" y="1035" />
              <mxPoint x="71" y="1205" />
            </Array>
          </mxGeometry>
        </mxCell>
        <mxCell id="1Mtl0f4eCWm2PjOWI_Pj-68" value="нет" style="edgeLabel;html=1;align=center;verticalAlign=middle;resizable=0;points=[];" vertex="1" connectable="0" parent="1Mtl0f4eCWm2PjOWI_Pj-67">
          <mxGeometry x="-0.5001" y="5" relative="1" as="geometry">
            <mxPoint x="14" y="-35" as="offset" />
          </mxGeometry>
        </mxCell>
        <mxCell id="1Mtl0f4eCWm2PjOWI_Pj-72" value="Выбрать область на карте" style="rounded=1;whiteSpace=wrap;html=1;shadow=0;comic=0;labelBackgroundColor=none;strokeWidth=1;fontFamily=Verdana;fontSize=12;align=center;arcSize=50;" vertex="1" parent="1c1d494c118603dd-2">
          <mxGeometry x="200" y="1100" width="140" height="30" as="geometry" />
        </mxCell>
        <mxCell id="1Mtl0f4eCWm2PjOWI_Pj-79" style="edgeStyle=orthogonalEdgeStyle;rounded=0;orthogonalLoop=1;jettySize=auto;html=1;" edge="1" parent="1c1d494c118603dd-2" source="1Mtl0f4eCWm2PjOWI_Pj-75" target="1Mtl0f4eCWm2PjOWI_Pj-78">
          <mxGeometry relative="1" as="geometry" />
        </mxCell>
        <mxCell id="1Mtl0f4eCWm2PjOWI_Pj-75" value="" style="rhombus;whiteSpace=wrap;html=1;" vertex="1" parent="1c1d494c118603dd-2">
          <mxGeometry x="110" y="1181" width="50" height="50" as="geometry" />
        </mxCell>
        <mxCell id="1Mtl0f4eCWm2PjOWI_Pj-81" value="" style="edgeStyle=orthogonalEdgeStyle;rounded=0;orthogonalLoop=1;jettySize=auto;html=1;" edge="1" parent="1c1d494c118603dd-2" source="1Mtl0f4eCWm2PjOWI_Pj-78" target="1Mtl0f4eCWm2PjOWI_Pj-80">
          <mxGeometry relative="1" as="geometry" />
        </mxCell>
        <mxCell id="1Mtl0f4eCWm2PjOWI_Pj-78" value="Просматривает объявления" style="rounded=1;whiteSpace=wrap;html=1;shadow=0;comic=0;labelBackgroundColor=none;strokeWidth=1;fontFamily=Verdana;fontSize=12;align=center;arcSize=50;" vertex="1" parent="1c1d494c118603dd-2">
          <mxGeometry x="65" y="1270" width="140" height="30" as="geometry" />
        </mxCell>
        <mxCell id="1Mtl0f4eCWm2PjOWI_Pj-80" value="Выбирает объявление для детального просмотра" style="rounded=1;whiteSpace=wrap;html=1;shadow=0;comic=0;labelBackgroundColor=none;strokeWidth=1;fontFamily=Verdana;fontSize=12;align=center;arcSize=50;" vertex="1" parent="1c1d494c118603dd-2">
          <mxGeometry x="37.5" y="1380" width="195" height="60" as="geometry" />
        </mxCell>
        <mxCell id="1Mtl0f4eCWm2PjOWI_Pj-137" value="" style="edgeStyle=orthogonalEdgeStyle;rounded=0;orthogonalLoop=1;jettySize=auto;html=1;" edge="1" parent="1c1d494c118603dd-2" source="1Mtl0f4eCWm2PjOWI_Pj-133" target="1Mtl0f4eCWm2PjOWI_Pj-136">
          <mxGeometry relative="1" as="geometry" />
        </mxCell>
        <mxCell id="1Mtl0f4eCWm2PjOWI_Pj-133" value="" style="rhombus;whiteSpace=wrap;html=1;" vertex="1" parent="1c1d494c118603dd-2">
          <mxGeometry x="140" y="1985" width="50" height="50" as="geometry" />
        </mxCell>
        <mxCell id="1Mtl0f4eCWm2PjOWI_Pj-179" style="edgeStyle=orthogonalEdgeStyle;rounded=0;orthogonalLoop=1;jettySize=auto;html=1;" edge="1" parent="1c1d494c118603dd-2" source="1Mtl0f4eCWm2PjOWI_Pj-136" target="1Mtl0f4eCWm2PjOWI_Pj-178">
          <mxGeometry relative="1" as="geometry">
            <Array as="points">
              <mxPoint x="238" y="2085" />
            </Array>
          </mxGeometry>
        </mxCell>
        <mxCell id="1Mtl0f4eCWm2PjOWI_Pj-194" value="" style="edgeStyle=orthogonalEdgeStyle;rounded=0;orthogonalLoop=1;jettySize=auto;html=1;entryX=0;entryY=0.5;entryDx=0;entryDy=0;" edge="1" parent="1c1d494c118603dd-2" source="1Mtl0f4eCWm2PjOWI_Pj-136" target="1Mtl0f4eCWm2PjOWI_Pj-193">
          <mxGeometry relative="1" as="geometry">
            <Array as="points">
              <mxPoint x="90" y="2085" />
              <mxPoint x="90" y="2545" />
            </Array>
          </mxGeometry>
        </mxCell>
        <mxCell id="1Mtl0f4eCWm2PjOWI_Pj-136" value="" style="rhombus;whiteSpace=wrap;html=1;" vertex="1" parent="1c1d494c118603dd-2">
          <mxGeometry x="140" y="2060" width="50" height="50" as="geometry" />
        </mxCell>
        <mxCell id="1Mtl0f4eCWm2PjOWI_Pj-138" value="Добавить в избранное?" style="text;html=1;align=center;verticalAlign=middle;whiteSpace=wrap;rounded=0;" vertex="1" parent="1c1d494c118603dd-2">
          <mxGeometry x="140" y="2110" width="60" height="30" as="geometry" />
        </mxCell>
        <mxCell id="1Mtl0f4eCWm2PjOWI_Pj-178" value="Добавить в избранное" style="rounded=1;whiteSpace=wrap;html=1;shadow=0;comic=0;labelBackgroundColor=none;strokeWidth=1;fontFamily=Verdana;fontSize=12;align=center;arcSize=50;" vertex="1" parent="1c1d494c118603dd-2">
          <mxGeometry x="150" y="2150" width="170" height="30" as="geometry" />
        </mxCell>
        <mxCell id="1Mtl0f4eCWm2PjOWI_Pj-193" value="" style="rhombus;whiteSpace=wrap;html=1;" vertex="1" parent="1c1d494c118603dd-2">
          <mxGeometry x="155" y="2520" width="50" height="50" as="geometry" />
        </mxCell>
        <mxCell id="1Mtl0f4eCWm2PjOWI_Pj-261" style="edgeStyle=orthogonalEdgeStyle;rounded=0;orthogonalLoop=1;jettySize=auto;html=1;" edge="1" parent="1c1d494c118603dd-2" source="1Mtl0f4eCWm2PjOWI_Pj-258" target="1Mtl0f4eCWm2PjOWI_Pj-262">
          <mxGeometry relative="1" as="geometry">
            <mxPoint x="60" y="610" as="targetPoint" />
          </mxGeometry>
        </mxCell>
        <mxCell id="1Mtl0f4eCWm2PjOWI_Pj-263" value="Да" style="edgeLabel;html=1;align=center;verticalAlign=middle;resizable=0;points=[];" vertex="1" connectable="0" parent="1Mtl0f4eCWm2PjOWI_Pj-261">
          <mxGeometry x="0.3046" y="-1" relative="1" as="geometry">
            <mxPoint x="10" as="offset" />
          </mxGeometry>
        </mxCell>
        <mxCell id="1Mtl0f4eCWm2PjOWI_Pj-265" value="" style="edgeStyle=orthogonalEdgeStyle;rounded=0;orthogonalLoop=1;jettySize=auto;html=1;entryX=1;entryY=0.5;entryDx=0;entryDy=0;" edge="1" parent="1c1d494c118603dd-2" source="1Mtl0f4eCWm2PjOWI_Pj-258" target="1Mtl0f4eCWm2PjOWI_Pj-264">
          <mxGeometry relative="1" as="geometry">
            <Array as="points">
              <mxPoint x="320" y="525" />
              <mxPoint x="320" y="645" />
            </Array>
          </mxGeometry>
        </mxCell>
        <mxCell id="1Mtl0f4eCWm2PjOWI_Pj-266" value="Нет" style="edgeLabel;html=1;align=center;verticalAlign=middle;resizable=0;points=[];" vertex="1" connectable="0" parent="1Mtl0f4eCWm2PjOWI_Pj-265">
          <mxGeometry x="-0.8036" relative="1" as="geometry">
            <mxPoint x="-21" y="-8" as="offset" />
          </mxGeometry>
        </mxCell>
        <mxCell id="1Mtl0f4eCWm2PjOWI_Pj-258" value="" style="rhombus;whiteSpace=wrap;html=1;" vertex="1" parent="1c1d494c118603dd-2">
          <mxGeometry x="115" y="500" width="50" height="50" as="geometry" />
        </mxCell>
        <mxCell id="1Mtl0f4eCWm2PjOWI_Pj-259" value="Приостановить уведомления?" style="text;html=1;align=center;verticalAlign=middle;whiteSpace=wrap;rounded=0;" vertex="1" parent="1c1d494c118603dd-2">
          <mxGeometry x="37.5" y="520" width="60" height="30" as="geometry" />
        </mxCell>
        <mxCell id="1Mtl0f4eCWm2PjOWI_Pj-267" style="edgeStyle=orthogonalEdgeStyle;rounded=0;orthogonalLoop=1;jettySize=auto;html=1;" edge="1" parent="1c1d494c118603dd-2" source="1Mtl0f4eCWm2PjOWI_Pj-262" target="1Mtl0f4eCWm2PjOWI_Pj-264">
          <mxGeometry relative="1" as="geometry" />
        </mxCell>
        <mxCell id="1Mtl0f4eCWm2PjOWI_Pj-262" value="Приостановить отправку уведомлений" style="rounded=1;whiteSpace=wrap;html=1;shadow=0;comic=0;labelBackgroundColor=none;strokeWidth=1;fontFamily=Verdana;fontSize=12;align=center;arcSize=50;" vertex="1" parent="1c1d494c118603dd-2">
          <mxGeometry x="55" y="570" width="170" height="30" as="geometry" />
        </mxCell>
        <mxCell id="1Mtl0f4eCWm2PjOWI_Pj-268" style="edgeStyle=orthogonalEdgeStyle;rounded=0;orthogonalLoop=1;jettySize=auto;html=1;" edge="1" parent="1c1d494c118603dd-2" source="1Mtl0f4eCWm2PjOWI_Pj-264" target="1Mtl0f4eCWm2PjOWI_Pj-43">
          <mxGeometry relative="1" as="geometry" />
        </mxCell>
        <mxCell id="1Mtl0f4eCWm2PjOWI_Pj-264" value="" style="rhombus;whiteSpace=wrap;html=1;" vertex="1" parent="1c1d494c118603dd-2">
          <mxGeometry x="115" y="620" width="50" height="50" as="geometry" />
        </mxCell>
        <mxCell id="1Mtl0f4eCWm2PjOWI_Pj-272" style="edgeStyle=orthogonalEdgeStyle;rounded=0;orthogonalLoop=1;jettySize=auto;html=1;exitX=0.5;exitY=1;exitDx=0;exitDy=0;entryX=0.5;entryY=0;entryDx=0;entryDy=0;" edge="1" parent="1c1d494c118603dd-2" source="1Mtl0f4eCWm2PjOWI_Pj-269" target="1Mtl0f4eCWm2PjOWI_Pj-193">
          <mxGeometry relative="1" as="geometry" />
        </mxCell>
        <mxCell id="1Mtl0f4eCWm2PjOWI_Pj-269" value="" style="rhombus;whiteSpace=wrap;html=1;" vertex="1" parent="1c1d494c118603dd-2">
          <mxGeometry x="152.5" y="2450" width="55" height="50" as="geometry" />
        </mxCell>
        <mxCell id="1c1d494c118603dd-3" value="Система" style="swimlane;html=1;startSize=20;" parent="1c1d494c118603dd-1" vertex="1">
          <mxGeometry x="500" y="20" width="437" height="2800" as="geometry" />
        </mxCell>
        <mxCell id="60571a20871a0731-3" value="" style="whiteSpace=wrap;html=1;rounded=0;shadow=0;comic=0;labelBackgroundColor=none;strokeWidth=1;fillColor=#000000;fontFamily=Verdana;fontSize=12;align=center;rotation=0;" parent="1c1d494c118603dd-3" vertex="1">
          <mxGeometry x="130" y="160" width="160" height="10" as="geometry" />
        </mxCell>
        <mxCell id="1Mtl0f4eCWm2PjOWI_Pj-3" value="" style="edgeStyle=orthogonalEdgeStyle;rounded=0;orthogonalLoop=1;jettySize=auto;html=1;" edge="1" parent="1c1d494c118603dd-3" source="1Mtl0f4eCWm2PjOWI_Pj-1" target="1Mtl0f4eCWm2PjOWI_Pj-2">
          <mxGeometry relative="1" as="geometry" />
        </mxCell>
        <mxCell id="1Mtl0f4eCWm2PjOWI_Pj-1" value="Проверить объявление" style="rounded=1;whiteSpace=wrap;html=1;shadow=0;comic=0;labelBackgroundColor=none;strokeWidth=1;fontFamily=Verdana;fontSize=12;align=center;arcSize=50;" vertex="1" parent="1c1d494c118603dd-3">
          <mxGeometry x="290" y="250" width="100" height="30" as="geometry" />
        </mxCell>
        <mxCell id="1Mtl0f4eCWm2PjOWI_Pj-2" value="Опубликовать" style="rounded=1;whiteSpace=wrap;html=1;shadow=0;comic=0;labelBackgroundColor=none;strokeWidth=1;fontFamily=Verdana;fontSize=12;align=center;arcSize=50;" vertex="1" parent="1c1d494c118603dd-3">
          <mxGeometry x="290" y="310" width="100" height="30" as="geometry" />
        </mxCell>
        <mxCell id="1Mtl0f4eCWm2PjOWI_Pj-35" style="edgeStyle=orthogonalEdgeStyle;rounded=0;orthogonalLoop=1;jettySize=auto;html=1;" edge="1" parent="1c1d494c118603dd-3" source="1Mtl0f4eCWm2PjOWI_Pj-8" target="1Mtl0f4eCWm2PjOWI_Pj-14">
          <mxGeometry relative="1" as="geometry" />
        </mxCell>
        <mxCell id="1Mtl0f4eCWm2PjOWI_Pj-8" value="" style="rhombus;whiteSpace=wrap;html=1;" vertex="1" parent="1c1d494c118603dd-3">
          <mxGeometry x="335" y="410" width="50" height="50" as="geometry" />
        </mxCell>
        <mxCell id="1Mtl0f4eCWm2PjOWI_Pj-10" value="Есть опубликованные объявления?" style="text;html=1;align=center;verticalAlign=middle;whiteSpace=wrap;rounded=0;" vertex="1" parent="1c1d494c118603dd-3">
          <mxGeometry x="260" y="440" width="60" height="30" as="geometry" />
        </mxCell>
        <mxCell id="1Mtl0f4eCWm2PjOWI_Pj-19" value="" style="edgeStyle=orthogonalEdgeStyle;rounded=0;orthogonalLoop=1;jettySize=auto;html=1;" edge="1" parent="1c1d494c118603dd-3" source="1Mtl0f4eCWm2PjOWI_Pj-14" target="1Mtl0f4eCWm2PjOWI_Pj-18">
          <mxGeometry relative="1" as="geometry" />
        </mxCell>
        <mxCell id="1Mtl0f4eCWm2PjOWI_Pj-14" value="Показать статистику по объявлениям" style="rounded=1;whiteSpace=wrap;html=1;shadow=0;comic=0;labelBackgroundColor=none;strokeWidth=1;fontFamily=Verdana;fontSize=12;align=center;arcSize=50;" vertex="1" parent="1c1d494c118603dd-3">
          <mxGeometry x="290" y="520" width="140" height="30" as="geometry" />
        </mxCell>
        <mxCell id="1Mtl0f4eCWm2PjOWI_Pj-21" value="" style="edgeStyle=orthogonalEdgeStyle;rounded=0;orthogonalLoop=1;jettySize=auto;html=1;" edge="1" parent="1c1d494c118603dd-3" source="1Mtl0f4eCWm2PjOWI_Pj-18" target="1Mtl0f4eCWm2PjOWI_Pj-20">
          <mxGeometry relative="1" as="geometry" />
        </mxCell>
        <mxCell id="1Mtl0f4eCWm2PjOWI_Pj-18" value="Сравнение с другими объявлениями" style="rounded=1;whiteSpace=wrap;html=1;shadow=0;comic=0;labelBackgroundColor=none;strokeWidth=1;fontFamily=Verdana;fontSize=12;align=center;arcSize=50;" vertex="1" parent="1c1d494c118603dd-3">
          <mxGeometry x="220" y="640" width="140" height="30" as="geometry" />
        </mxCell>
        <mxCell id="1Mtl0f4eCWm2PjOWI_Pj-20" value="Рекомендации по улучшению&amp;nbsp;" style="rounded=1;whiteSpace=wrap;html=1;shadow=0;comic=0;labelBackgroundColor=none;strokeWidth=1;fontFamily=Verdana;fontSize=12;align=center;arcSize=50;" vertex="1" parent="1c1d494c118603dd-3">
          <mxGeometry x="220" y="750" width="140" height="30" as="geometry" />
        </mxCell>
        <mxCell id="1Mtl0f4eCWm2PjOWI_Pj-29" value="" style="edgeStyle=orthogonalEdgeStyle;rounded=0;orthogonalLoop=1;jettySize=auto;html=1;" edge="1" parent="1c1d494c118603dd-3" source="1Mtl0f4eCWm2PjOWI_Pj-26" target="1Mtl0f4eCWm2PjOWI_Pj-28">
          <mxGeometry relative="1" as="geometry" />
        </mxCell>
        <mxCell id="1Mtl0f4eCWm2PjOWI_Pj-26" value="Сгенерировать отчет" style="rounded=1;whiteSpace=wrap;html=1;shadow=0;comic=0;labelBackgroundColor=none;strokeWidth=1;fontFamily=Verdana;fontSize=12;align=center;arcSize=50;" vertex="1" parent="1c1d494c118603dd-3">
          <mxGeometry x="230" y="910" width="140" height="30" as="geometry" />
        </mxCell>
        <mxCell id="1Mtl0f4eCWm2PjOWI_Pj-28" value="Отправить на скачивание" style="rounded=1;whiteSpace=wrap;html=1;shadow=0;comic=0;labelBackgroundColor=none;strokeWidth=1;fontFamily=Verdana;fontSize=12;align=center;arcSize=50;" vertex="1" parent="1c1d494c118603dd-3">
          <mxGeometry x="230" y="1010" width="140" height="30" as="geometry" />
        </mxCell>
        <mxCell id="1Mtl0f4eCWm2PjOWI_Pj-48" value="Сохранить настройки в бд" style="rounded=1;whiteSpace=wrap;html=1;shadow=0;comic=0;labelBackgroundColor=none;strokeWidth=1;fontFamily=Verdana;fontSize=12;align=center;arcSize=50;" vertex="1" parent="1c1d494c118603dd-3">
          <mxGeometry x="30" y="770" width="170" height="30" as="geometry" />
        </mxCell>
        <mxCell id="1Mtl0f4eCWm2PjOWI_Pj-60" value="" style="edgeStyle=orthogonalEdgeStyle;rounded=0;orthogonalLoop=1;jettySize=auto;html=1;" edge="1" parent="1c1d494c118603dd-3" source="1Mtl0f4eCWm2PjOWI_Pj-57" target="1Mtl0f4eCWm2PjOWI_Pj-59">
          <mxGeometry relative="1" as="geometry" />
        </mxCell>
        <mxCell id="1Mtl0f4eCWm2PjOWI_Pj-57" value="Сохранить запрос с фильтрами" style="rounded=1;whiteSpace=wrap;html=1;shadow=0;comic=0;labelBackgroundColor=none;strokeWidth=1;fontFamily=Verdana;fontSize=12;align=center;arcSize=50;" vertex="1" parent="1c1d494c118603dd-3">
          <mxGeometry x="18.5" y="860" width="170" height="30" as="geometry" />
        </mxCell>
        <mxCell id="1Mtl0f4eCWm2PjOWI_Pj-59" value="Отобразить выборку" style="rounded=1;whiteSpace=wrap;html=1;shadow=0;comic=0;labelBackgroundColor=none;strokeWidth=1;fontFamily=Verdana;fontSize=12;align=center;arcSize=50;" vertex="1" parent="1c1d494c118603dd-3">
          <mxGeometry x="18.5" y="970" width="170" height="30" as="geometry" />
        </mxCell>
        <mxCell id="1Mtl0f4eCWm2PjOWI_Pj-69" value="Отфильтровать объявление по карте" style="rounded=1;whiteSpace=wrap;html=1;shadow=0;comic=0;labelBackgroundColor=none;strokeWidth=1;fontFamily=Verdana;fontSize=12;align=center;arcSize=50;" vertex="1" parent="1c1d494c118603dd-3">
          <mxGeometry x="30" y="1100" width="140" height="30" as="geometry" />
        </mxCell>
        <mxCell id="1Mtl0f4eCWm2PjOWI_Pj-82" value="Отображение деталей объявления" style="rounded=1;whiteSpace=wrap;html=1;shadow=0;comic=0;labelBackgroundColor=none;strokeWidth=1;fontFamily=Verdana;fontSize=12;align=center;arcSize=50;" vertex="1" parent="1c1d494c118603dd-3">
          <mxGeometry x="55" y="1380" width="195" height="60" as="geometry" />
        </mxCell>
        <mxCell id="1Mtl0f4eCWm2PjOWI_Pj-89" style="edgeStyle=orthogonalEdgeStyle;rounded=0;orthogonalLoop=1;jettySize=auto;html=1;" edge="1" parent="1c1d494c118603dd-3" source="1Mtl0f4eCWm2PjOWI_Pj-86" target="1Mtl0f4eCWm2PjOWI_Pj-88">
          <mxGeometry relative="1" as="geometry" />
        </mxCell>
        <mxCell id="1Mtl0f4eCWm2PjOWI_Pj-86" value="Обновление профиля интересов" style="rounded=1;whiteSpace=wrap;html=1;shadow=0;comic=0;labelBackgroundColor=none;strokeWidth=1;fontFamily=Verdana;fontSize=12;align=center;arcSize=50;" vertex="1" parent="1c1d494c118603dd-3">
          <mxGeometry x="55" y="1580" width="195" height="60" as="geometry" />
        </mxCell>
        <mxCell id="1Mtl0f4eCWm2PjOWI_Pj-84" value="Сохранение данных о переходе по объявлению" style="rounded=1;whiteSpace=wrap;html=1;shadow=0;comic=0;labelBackgroundColor=none;strokeWidth=1;fontFamily=Verdana;fontSize=12;align=center;arcSize=50;" vertex="1" parent="1c1d494c118603dd-3">
          <mxGeometry x="55" y="1480" width="195" height="60" as="geometry" />
        </mxCell>
        <mxCell id="1Mtl0f4eCWm2PjOWI_Pj-85" value="" style="edgeStyle=orthogonalEdgeStyle;rounded=0;orthogonalLoop=1;jettySize=auto;html=1;" edge="1" parent="1c1d494c118603dd-3" source="1Mtl0f4eCWm2PjOWI_Pj-82" target="1Mtl0f4eCWm2PjOWI_Pj-84">
          <mxGeometry relative="1" as="geometry" />
        </mxCell>
        <mxCell id="1Mtl0f4eCWm2PjOWI_Pj-87" value="" style="edgeStyle=orthogonalEdgeStyle;rounded=0;orthogonalLoop=1;jettySize=auto;html=1;" edge="1" parent="1c1d494c118603dd-3" source="1Mtl0f4eCWm2PjOWI_Pj-84" target="1Mtl0f4eCWm2PjOWI_Pj-86">
          <mxGeometry relative="1" as="geometry" />
        </mxCell>
        <mxCell id="1Mtl0f4eCWm2PjOWI_Pj-124" style="edgeStyle=orthogonalEdgeStyle;rounded=0;orthogonalLoop=1;jettySize=auto;html=1;entryX=0;entryY=0.5;entryDx=0;entryDy=0;" edge="1" parent="1c1d494c118603dd-3" source="1Mtl0f4eCWm2PjOWI_Pj-88" target="1Mtl0f4eCWm2PjOWI_Pj-125">
          <mxGeometry relative="1" as="geometry">
            <mxPoint x="90" y="1780" as="targetPoint" />
            <Array as="points">
              <mxPoint x="210" y="1695" />
              <mxPoint x="210" y="1815" />
            </Array>
          </mxGeometry>
        </mxCell>
        <mxCell id="1Mtl0f4eCWm2PjOWI_Pj-88" value="" style="rhombus;whiteSpace=wrap;html=1;" vertex="1" parent="1c1d494c118603dd-3">
          <mxGeometry x="127.5" y="1670" width="50" height="50" as="geometry" />
        </mxCell>
        <mxCell id="1Mtl0f4eCWm2PjOWI_Pj-90" value="Уведомления включены?" style="text;html=1;align=center;verticalAlign=middle;whiteSpace=wrap;rounded=0;" vertex="1" parent="1c1d494c118603dd-3">
          <mxGeometry x="122.5" y="1720" width="60" height="30" as="geometry" />
        </mxCell>
        <mxCell id="1Mtl0f4eCWm2PjOWI_Pj-128" style="edgeStyle=orthogonalEdgeStyle;rounded=0;orthogonalLoop=1;jettySize=auto;html=1;" edge="1" parent="1c1d494c118603dd-3" source="1Mtl0f4eCWm2PjOWI_Pj-125" target="1Mtl0f4eCWm2PjOWI_Pj-127">
          <mxGeometry relative="1" as="geometry" />
        </mxCell>
        <mxCell id="1Mtl0f4eCWm2PjOWI_Pj-125" value="" style="rhombus;whiteSpace=wrap;html=1;" vertex="1" parent="1c1d494c118603dd-3">
          <mxGeometry x="127" y="1790" width="50" height="50" as="geometry" />
        </mxCell>
        <mxCell id="1Mtl0f4eCWm2PjOWI_Pj-126" value="Есть новые объявления по профилю?" style="text;html=1;align=center;verticalAlign=middle;whiteSpace=wrap;rounded=0;" vertex="1" parent="1c1d494c118603dd-3">
          <mxGeometry x="170" y="1840" width="60" height="30" as="geometry" />
        </mxCell>
        <mxCell id="1Mtl0f4eCWm2PjOWI_Pj-130" style="edgeStyle=orthogonalEdgeStyle;rounded=0;orthogonalLoop=1;jettySize=auto;html=1;exitX=0.5;exitY=1;exitDx=0;exitDy=0;" edge="1" parent="1c1d494c118603dd-3" source="1Mtl0f4eCWm2PjOWI_Pj-127" target="1Mtl0f4eCWm2PjOWI_Pj-129">
          <mxGeometry relative="1" as="geometry" />
        </mxCell>
        <mxCell id="1Mtl0f4eCWm2PjOWI_Pj-127" value="Генерация подборки объявлений по профилю интересов" style="rounded=1;whiteSpace=wrap;html=1;shadow=0;comic=0;labelBackgroundColor=none;strokeWidth=1;fontFamily=Verdana;fontSize=12;align=center;arcSize=50;" vertex="1" parent="1c1d494c118603dd-3">
          <mxGeometry x="54.5" y="1900" width="195" height="60" as="geometry" />
        </mxCell>
        <mxCell id="1Mtl0f4eCWm2PjOWI_Pj-129" value="Отправляют персонализированное уведомлние" style="rounded=1;whiteSpace=wrap;html=1;shadow=0;comic=0;labelBackgroundColor=none;strokeWidth=1;fontFamily=Verdana;fontSize=12;align=center;arcSize=50;" vertex="1" parent="1c1d494c118603dd-3">
          <mxGeometry x="54.5" y="1980" width="195" height="60" as="geometry" />
        </mxCell>
        <mxCell id="1Mtl0f4eCWm2PjOWI_Pj-183" value="" style="edgeStyle=orthogonalEdgeStyle;rounded=0;orthogonalLoop=1;jettySize=auto;html=1;" edge="1" parent="1c1d494c118603dd-3" source="1Mtl0f4eCWm2PjOWI_Pj-180" target="1Mtl0f4eCWm2PjOWI_Pj-184">
          <mxGeometry relative="1" as="geometry">
            <mxPoint x="152.5" y="2260" as="targetPoint" />
          </mxGeometry>
        </mxCell>
        <mxCell id="1Mtl0f4eCWm2PjOWI_Pj-180" value="Сохранить объявление как избранное" style="rounded=1;whiteSpace=wrap;html=1;shadow=0;comic=0;labelBackgroundColor=none;strokeWidth=1;fontFamily=Verdana;fontSize=12;align=center;arcSize=50;" vertex="1" parent="1c1d494c118603dd-3">
          <mxGeometry x="67.5" y="2150" width="170" height="30" as="geometry" />
        </mxCell>
        <mxCell id="1Mtl0f4eCWm2PjOWI_Pj-187" value="" style="edgeStyle=orthogonalEdgeStyle;rounded=0;orthogonalLoop=1;jettySize=auto;html=1;" edge="1" parent="1c1d494c118603dd-3" source="1Mtl0f4eCWm2PjOWI_Pj-184" target="1Mtl0f4eCWm2PjOWI_Pj-186">
          <mxGeometry relative="1" as="geometry">
            <Array as="points">
              <mxPoint x="210" y="2275" />
              <mxPoint x="210" y="2370" />
              <mxPoint x="154" y="2370" />
            </Array>
          </mxGeometry>
        </mxCell>
        <mxCell id="1Mtl0f4eCWm2PjOWI_Pj-184" value="" style="rhombus;whiteSpace=wrap;html=1;" vertex="1" parent="1c1d494c118603dd-3">
          <mxGeometry x="127" y="2250" width="50" height="50" as="geometry" />
        </mxCell>
        <mxCell id="1Mtl0f4eCWm2PjOWI_Pj-185" value="Избранное объявление изменилось?" style="text;html=1;align=center;verticalAlign=middle;whiteSpace=wrap;rounded=0;" vertex="1" parent="1c1d494c118603dd-3">
          <mxGeometry x="128.5" y="2310" width="60" height="30" as="geometry" />
        </mxCell>
        <mxCell id="1Mtl0f4eCWm2PjOWI_Pj-192" style="edgeStyle=orthogonalEdgeStyle;rounded=0;orthogonalLoop=1;jettySize=auto;html=1;" edge="1" parent="1c1d494c118603dd-3" source="1Mtl0f4eCWm2PjOWI_Pj-186" target="1Mtl0f4eCWm2PjOWI_Pj-191">
          <mxGeometry relative="1" as="geometry">
            <Array as="points">
              <mxPoint x="260" y="2425" />
              <mxPoint x="260" y="2500" />
              <mxPoint x="165" y="2500" />
            </Array>
          </mxGeometry>
        </mxCell>
        <mxCell id="1Mtl0f4eCWm2PjOWI_Pj-186" value="" style="rhombus;whiteSpace=wrap;html=1;" vertex="1" parent="1c1d494c118603dd-3">
          <mxGeometry x="127" y="2400" width="53" height="50" as="geometry" />
        </mxCell>
        <mxCell id="1Mtl0f4eCWm2PjOWI_Pj-190" value="Существуют настройки об изменении объявлении в избранном?" style="text;html=1;align=center;verticalAlign=middle;whiteSpace=wrap;rounded=0;" vertex="1" parent="1c1d494c118603dd-3">
          <mxGeometry x="70.5" y="2460" width="176" height="30" as="geometry" />
        </mxCell>
        <mxCell id="1Mtl0f4eCWm2PjOWI_Pj-191" value="Отправить уведомление об изменении избранного объявления" style="rounded=1;whiteSpace=wrap;html=1;shadow=0;comic=0;labelBackgroundColor=none;strokeWidth=1;fontFamily=Verdana;fontSize=12;align=center;arcSize=50;" vertex="1" parent="1c1d494c118603dd-3">
          <mxGeometry x="80" y="2520" width="190" height="50" as="geometry" />
        </mxCell>
        <mxCell id="1Mtl0f4eCWm2PjOWI_Pj-256" style="edgeStyle=orthogonalEdgeStyle;rounded=0;orthogonalLoop=1;jettySize=auto;html=1;" edge="1" parent="1c1d494c118603dd-3" source="1Mtl0f4eCWm2PjOWI_Pj-250" target="1Mtl0f4eCWm2PjOWI_Pj-255">
          <mxGeometry relative="1" as="geometry" />
        </mxCell>
        <mxCell id="1Mtl0f4eCWm2PjOWI_Pj-250" value="" style="whiteSpace=wrap;html=1;rounded=0;shadow=0;comic=0;labelBackgroundColor=none;strokeWidth=1;fillColor=#000000;fontFamily=Verdana;fontSize=12;align=center;rotation=0;" vertex="1" parent="1c1d494c118603dd-3">
          <mxGeometry x="117" y="2660" width="147" height="10" as="geometry" />
        </mxCell>
        <mxCell id="1Mtl0f4eCWm2PjOWI_Pj-255" value="" style="shape=mxgraph.bpmn.shape;html=1;verticalLabelPosition=bottom;labelBackgroundColor=#ffffff;verticalAlign=top;perimeter=ellipsePerimeter;outline=end;symbol=terminate;rounded=0;shadow=0;comic=0;strokeWidth=1;fontFamily=Verdana;fontSize=12;align=center;" vertex="1" parent="1c1d494c118603dd-3">
          <mxGeometry x="170" y="2730" width="40" height="40" as="geometry" />
        </mxCell>
        <mxCell id="1c1d494c118603dd-4" value="Пользователь (арендодатель)" style="swimlane;html=1;startSize=20;" parent="1c1d494c118603dd-1" vertex="1">
          <mxGeometry x="937" y="20" width="293" height="2800" as="geometry" />
        </mxCell>
        <mxCell id="1c1d494c118603dd-5" value="Разместить объявление" style="rounded=1;whiteSpace=wrap;html=1;shadow=0;comic=0;labelBackgroundColor=none;strokeWidth=1;fontFamily=Verdana;fontSize=12;align=center;arcSize=50;" parent="1c1d494c118603dd-4" vertex="1">
          <mxGeometry x="45" y="208" width="100" height="30" as="geometry" />
        </mxCell>
        <mxCell id="1Mtl0f4eCWm2PjOWI_Pj-4" value="Перейти в раздел аналитики" style="rounded=1;whiteSpace=wrap;html=1;shadow=0;comic=0;labelBackgroundColor=none;strokeWidth=1;fontFamily=Verdana;fontSize=12;align=center;arcSize=50;" vertex="1" parent="1c1d494c118603dd-4">
          <mxGeometry x="70" y="370" width="140" height="30" as="geometry" />
        </mxCell>
        <mxCell id="1Mtl0f4eCWm2PjOWI_Pj-25" value="" style="edgeStyle=orthogonalEdgeStyle;rounded=0;orthogonalLoop=1;jettySize=auto;html=1;" edge="1" parent="1c1d494c118603dd-4" source="1Mtl0f4eCWm2PjOWI_Pj-22" target="1Mtl0f4eCWm2PjOWI_Pj-24">
          <mxGeometry relative="1" as="geometry" />
        </mxCell>
        <mxCell id="1Mtl0f4eCWm2PjOWI_Pj-22" value="Запросить выгрузку отчета" style="rounded=1;whiteSpace=wrap;html=1;shadow=0;comic=0;labelBackgroundColor=none;strokeWidth=1;fontFamily=Verdana;fontSize=12;align=center;arcSize=50;" vertex="1" parent="1c1d494c118603dd-4">
          <mxGeometry x="55" y="800" width="140" height="30" as="geometry" />
        </mxCell>
        <mxCell id="1Mtl0f4eCWm2PjOWI_Pj-24" value="Выбрать формат документа" style="rounded=1;whiteSpace=wrap;html=1;shadow=0;comic=0;labelBackgroundColor=none;strokeWidth=1;fontFamily=Verdana;fontSize=12;align=center;arcSize=50;" vertex="1" parent="1c1d494c118603dd-4">
          <mxGeometry x="55" y="910" width="140" height="30" as="geometry" />
        </mxCell>
        <mxCell id="1Mtl0f4eCWm2PjOWI_Pj-202" style="edgeStyle=orthogonalEdgeStyle;rounded=0;orthogonalLoop=1;jettySize=auto;html=1;entryX=1;entryY=0.5;entryDx=0;entryDy=0;" edge="1" parent="1c1d494c118603dd-4" source="1Mtl0f4eCWm2PjOWI_Pj-16" target="1Mtl0f4eCWm2PjOWI_Pj-198">
          <mxGeometry relative="1" as="geometry">
            <Array as="points">
              <mxPoint x="253" y="510" />
              <mxPoint x="253" y="1025" />
            </Array>
          </mxGeometry>
        </mxCell>
        <mxCell id="1Mtl0f4eCWm2PjOWI_Pj-16" value="Получить уведомление об отсутствии объявлений" style="rounded=1;whiteSpace=wrap;html=1;shadow=0;comic=0;labelBackgroundColor=none;strokeWidth=1;fontFamily=Verdana;fontSize=12;align=center;arcSize=50;" vertex="1" parent="1c1d494c118603dd-4">
          <mxGeometry x="93" y="480" width="140" height="60" as="geometry" />
        </mxCell>
        <mxCell id="1Mtl0f4eCWm2PjOWI_Pj-198" value="" style="rhombus;whiteSpace=wrap;html=1;" vertex="1" parent="1c1d494c118603dd-4">
          <mxGeometry x="98" y="1000" width="50" height="50" as="geometry" />
        </mxCell>
        <mxCell id="1c1d494c118603dd-30" style="edgeStyle=orthogonalEdgeStyle;rounded=0;html=1;exitX=0.25;exitY=1;entryX=0.5;entryY=0;labelBackgroundColor=none;startArrow=none;startFill=0;startSize=5;endArrow=classicThin;endFill=1;endSize=5;jettySize=auto;orthogonalLoop=1;strokeWidth=1;fontFamily=Verdana;fontSize=12" parent="1c1d494c118603dd-1" source="60571a20871a0731-3" target="1c1d494c118603dd-6" edge="1">
          <mxGeometry relative="1" as="geometry">
            <Array as="points">
              <mxPoint x="670" y="210" />
              <mxPoint x="140" y="210" />
            </Array>
          </mxGeometry>
        </mxCell>
        <mxCell id="1Mtl0f4eCWm2PjOWI_Pj-49" value="" style="edgeStyle=orthogonalEdgeStyle;rounded=0;orthogonalLoop=1;jettySize=auto;html=1;" edge="1" parent="1c1d494c118603dd-1" source="1Mtl0f4eCWm2PjOWI_Pj-46" target="1Mtl0f4eCWm2PjOWI_Pj-48">
          <mxGeometry relative="1" as="geometry" />
        </mxCell>
        <mxCell id="1Mtl0f4eCWm2PjOWI_Pj-51" value="" style="edgeStyle=orthogonalEdgeStyle;rounded=0;orthogonalLoop=1;jettySize=auto;html=1;" edge="1" parent="1c1d494c118603dd-1" source="1Mtl0f4eCWm2PjOWI_Pj-48" target="1Mtl0f4eCWm2PjOWI_Pj-50">
          <mxGeometry relative="1" as="geometry">
            <Array as="points">
              <mxPoint x="615" y="850" />
            </Array>
          </mxGeometry>
        </mxCell>
        <mxCell id="1Mtl0f4eCWm2PjOWI_Pj-58" value="" style="edgeStyle=orthogonalEdgeStyle;rounded=0;orthogonalLoop=1;jettySize=auto;html=1;" edge="1" parent="1c1d494c118603dd-1" source="1Mtl0f4eCWm2PjOWI_Pj-55" target="1Mtl0f4eCWm2PjOWI_Pj-57">
          <mxGeometry relative="1" as="geometry" />
        </mxCell>
        <mxCell id="1Mtl0f4eCWm2PjOWI_Pj-64" style="edgeStyle=orthogonalEdgeStyle;rounded=0;orthogonalLoop=1;jettySize=auto;html=1;entryX=0.5;entryY=0;entryDx=0;entryDy=0;" edge="1" parent="1c1d494c118603dd-1" source="1Mtl0f4eCWm2PjOWI_Pj-59" target="1Mtl0f4eCWm2PjOWI_Pj-63">
          <mxGeometry relative="1" as="geometry" />
        </mxCell>
        <mxCell id="1Mtl0f4eCWm2PjOWI_Pj-74" style="edgeStyle=orthogonalEdgeStyle;rounded=0;orthogonalLoop=1;jettySize=auto;html=1;entryX=0;entryY=0.5;entryDx=0;entryDy=0;" edge="1" parent="1c1d494c118603dd-1" source="1Mtl0f4eCWm2PjOWI_Pj-72" target="1Mtl0f4eCWm2PjOWI_Pj-69">
          <mxGeometry relative="1" as="geometry" />
        </mxCell>
        <mxCell id="1Mtl0f4eCWm2PjOWI_Pj-76" style="edgeStyle=orthogonalEdgeStyle;rounded=0;orthogonalLoop=1;jettySize=auto;html=1;entryX=1;entryY=0.5;entryDx=0;entryDy=0;" edge="1" parent="1c1d494c118603dd-1" source="1Mtl0f4eCWm2PjOWI_Pj-69" target="1Mtl0f4eCWm2PjOWI_Pj-75">
          <mxGeometry relative="1" as="geometry">
            <Array as="points">
              <mxPoint x="460" y="1225" />
            </Array>
          </mxGeometry>
        </mxCell>
        <mxCell id="1Mtl0f4eCWm2PjOWI_Pj-83" value="" style="edgeStyle=orthogonalEdgeStyle;rounded=0;orthogonalLoop=1;jettySize=auto;html=1;" edge="1" parent="1c1d494c118603dd-1" source="1Mtl0f4eCWm2PjOWI_Pj-80" target="1Mtl0f4eCWm2PjOWI_Pj-82">
          <mxGeometry relative="1" as="geometry" />
        </mxCell>
        <mxCell id="1Mtl0f4eCWm2PjOWI_Pj-134" style="edgeStyle=orthogonalEdgeStyle;rounded=0;orthogonalLoop=1;jettySize=auto;html=1;entryX=0;entryY=0.5;entryDx=0;entryDy=0;" edge="1" parent="1c1d494c118603dd-1" source="1Mtl0f4eCWm2PjOWI_Pj-88" target="1Mtl0f4eCWm2PjOWI_Pj-133">
          <mxGeometry relative="1" as="geometry" />
        </mxCell>
        <mxCell id="1Mtl0f4eCWm2PjOWI_Pj-135" style="edgeStyle=orthogonalEdgeStyle;rounded=0;orthogonalLoop=1;jettySize=auto;html=1;" edge="1" parent="1c1d494c118603dd-1" source="1Mtl0f4eCWm2PjOWI_Pj-125" target="1Mtl0f4eCWm2PjOWI_Pj-133">
          <mxGeometry relative="1" as="geometry" />
        </mxCell>
        <mxCell id="1Mtl0f4eCWm2PjOWI_Pj-131" style="edgeStyle=orthogonalEdgeStyle;rounded=0;orthogonalLoop=1;jettySize=auto;html=1;" edge="1" parent="1c1d494c118603dd-1" source="1Mtl0f4eCWm2PjOWI_Pj-129" target="1Mtl0f4eCWm2PjOWI_Pj-133">
          <mxGeometry relative="1" as="geometry">
            <mxPoint x="190" y="2030" as="targetPoint" />
          </mxGeometry>
        </mxCell>
        <mxCell id="1Mtl0f4eCWm2PjOWI_Pj-181" value="" style="edgeStyle=orthogonalEdgeStyle;rounded=0;orthogonalLoop=1;jettySize=auto;html=1;" edge="1" parent="1c1d494c118603dd-1" source="1Mtl0f4eCWm2PjOWI_Pj-178" target="1Mtl0f4eCWm2PjOWI_Pj-180">
          <mxGeometry relative="1" as="geometry" />
        </mxCell>
        <mxCell id="1Mtl0f4eCWm2PjOWI_Pj-195" style="edgeStyle=orthogonalEdgeStyle;rounded=0;orthogonalLoop=1;jettySize=auto;html=1;entryX=1;entryY=0.5;entryDx=0;entryDy=0;" edge="1" parent="1c1d494c118603dd-1" source="1Mtl0f4eCWm2PjOWI_Pj-191" target="1Mtl0f4eCWm2PjOWI_Pj-193">
          <mxGeometry relative="1" as="geometry" />
        </mxCell>
        <mxCell id="1Mtl0f4eCWm2PjOWI_Pj-196" style="edgeStyle=orthogonalEdgeStyle;rounded=0;orthogonalLoop=1;jettySize=auto;html=1;entryX=0.5;entryY=0;entryDx=0;entryDy=0;" edge="1" parent="1c1d494c118603dd-1" source="60571a20871a0731-8" target="60571a20871a0731-3">
          <mxGeometry relative="1" as="geometry" />
        </mxCell>
        <mxCell id="1Mtl0f4eCWm2PjOWI_Pj-17" style="edgeStyle=orthogonalEdgeStyle;rounded=0;orthogonalLoop=1;jettySize=auto;html=1;" edge="1" parent="1c1d494c118603dd-1" source="1Mtl0f4eCWm2PjOWI_Pj-8" target="1Mtl0f4eCWm2PjOWI_Pj-16">
          <mxGeometry relative="1" as="geometry">
            <Array as="points">
              <mxPoint x="1100" y="455" />
            </Array>
          </mxGeometry>
        </mxCell>
        <mxCell id="1Mtl0f4eCWm2PjOWI_Pj-197" style="edgeStyle=orthogonalEdgeStyle;rounded=0;orthogonalLoop=1;jettySize=auto;html=1;" edge="1" parent="1c1d494c118603dd-1" source="1Mtl0f4eCWm2PjOWI_Pj-28" target="1Mtl0f4eCWm2PjOWI_Pj-198">
          <mxGeometry relative="1" as="geometry">
            <mxPoint x="1050" y="1045" as="targetPoint" />
          </mxGeometry>
        </mxCell>
        <mxCell id="1Mtl0f4eCWm2PjOWI_Pj-204" style="edgeStyle=orthogonalEdgeStyle;rounded=0;orthogonalLoop=1;jettySize=auto;html=1;entryX=0.204;entryY=0.095;entryDx=0;entryDy=0;entryPerimeter=0;" edge="1" parent="1c1d494c118603dd-1" source="1Mtl0f4eCWm2PjOWI_Pj-193" target="1Mtl0f4eCWm2PjOWI_Pj-250">
          <mxGeometry relative="1" as="geometry">
            <mxPoint x="180" y="2670" as="targetPoint" />
            <Array as="points">
              <mxPoint x="180" y="2630" />
              <mxPoint x="647" y="2630" />
            </Array>
          </mxGeometry>
        </mxCell>
        <mxCell id="1Mtl0f4eCWm2PjOWI_Pj-251" style="edgeStyle=orthogonalEdgeStyle;rounded=0;orthogonalLoop=1;jettySize=auto;html=1;entryX=0.75;entryY=0;entryDx=0;entryDy=0;" edge="1" parent="1c1d494c118603dd-1" source="1Mtl0f4eCWm2PjOWI_Pj-198" target="1Mtl0f4eCWm2PjOWI_Pj-250">
          <mxGeometry relative="1" as="geometry">
            <Array as="points">
              <mxPoint x="1060" y="2630" />
              <mxPoint x="727" y="2630" />
            </Array>
          </mxGeometry>
        </mxCell>
        <mxCell id="1Mtl0f4eCWm2PjOWI_Pj-270" style="edgeStyle=orthogonalEdgeStyle;rounded=0;orthogonalLoop=1;jettySize=auto;html=1;entryX=0.5;entryY=0;entryDx=0;entryDy=0;" edge="1" parent="1c1d494c118603dd-1" source="1Mtl0f4eCWm2PjOWI_Pj-184" target="1Mtl0f4eCWm2PjOWI_Pj-269">
          <mxGeometry relative="1" as="geometry" />
        </mxCell>
        <mxCell id="1Mtl0f4eCWm2PjOWI_Pj-271" style="edgeStyle=orthogonalEdgeStyle;rounded=0;orthogonalLoop=1;jettySize=auto;html=1;entryX=1;entryY=0.5;entryDx=0;entryDy=0;" edge="1" parent="1c1d494c118603dd-1" source="1Mtl0f4eCWm2PjOWI_Pj-186" target="1Mtl0f4eCWm2PjOWI_Pj-269">
          <mxGeometry relative="1" as="geometry" />
        </mxCell>
      </root>
    </mxGraphModel>
  </diagram>
</mxfile>
